<?xml version="1.0" encoding="UTF-8" standalone="no"?>
<!-- Created with Inkscape (http://www.inkscape.org/) -->

<svg
   width="196.02942mm"
   height="131.136mm"
   viewBox="0 0 196.02942 131.136"
   version="1.1"
   id="svg1"
   xml:space="preserve"
   xmlns="http://www.w3.org/2000/svg"
   xmlns:svg="http://www.w3.org/2000/svg"><defs
     id="defs1" /><g
     id="layer1"
     transform="translate(-1.985293,-34.431965)"><g
       id="layer1-6"
       transform="matrix(1.3285266,0,0,1.3285266,-220.43642,-480.66189)"><g
         id="g1"
         transform="translate(0.36444167,8.1198442)"><path
           id="path5997"
           d="m 262.24,388.71 c -13.132,0 -24.365,8.755 -28.939,21.153 -3.2836,-1.4488 -6.9285,-2.2234 -10.754,-2.2234 -12.897,0 -23.631,9.1352 -25.978,21.246 -1.6526,-0.41046 -3.3852,-0.61761 -5.1676,-0.61761 -11.606,0 -21.006,9.2545 -21.006,20.659 0,11.405 9.4001,20.659 21.006,20.659 3.6494,0 7.0932,-0.92418 10.084,-2.5322 5.1621,5.1757 13.55,8.554 23.017,8.554 7.6253,0 14.534,-2.1895 19.637,-5.7438 4.3851,4.5957 10.522,7.4422 17.319,7.4422 8.8302,0 16.549,-4.8187 20.754,-12.013 2.8951,1.6282 6.1657,2.5631 9.609,2.5631 12.035,0 21.788,-11.171 21.788,-24.952 0,-13.272 -9.0552,-24.107 -20.475,-24.89 -1.9342,-16.53 -15.033,-29.306 -30.894,-29.306 z"
           style="fill:#cccccc;stroke:#cccccc;stroke-width:2;stroke-linecap:round;stroke-linejoin:round" /><path
           id="path4074"
           style="fill:#ffffff;stroke:#000000;stroke-width:2;stroke-linecap:round;stroke-linejoin:round"
           d="m 259.9,380.6 c -13.132,0 -24.365,8.755 -28.939,21.153 -3.2836,-1.4488 -6.9285,-2.2234 -10.754,-2.2234 -12.897,0 -23.631,9.1352 -25.978,21.246 -1.6526,-0.41046 -3.3852,-0.61761 -5.1676,-0.61761 -11.606,0 -21.006,9.2545 -21.006,20.659 0,11.405 9.4001,20.659 21.006,20.659 3.6494,0 7.0932,-0.92418 10.084,-2.5322 5.1621,5.1757 13.55,8.554 23.017,8.554 7.6253,0 14.534,-2.1895 19.637,-5.7438 4.3851,4.5957 10.522,7.4422 17.319,7.4422 8.8302,0 16.549,-4.8187 20.754,-12.013 2.8951,1.6282 6.1657,2.5631 9.609,2.5631 12.035,0 21.788,-11.171 21.788,-24.952 0,-13.272 -9.0552,-24.107 -20.475,-24.89 -1.9342,-16.53 -15.033,-29.306 -30.894,-29.306 z" /></g><text
         xml:space="preserve"
         style="font-size:39.8311px;line-height:754.387px;font-family:sans-serif;-inkscape-font-specification:sans-serif;letter-spacing:0px;word-spacing:0px;stroke-width:0.199155"
         x="196.98004"
         y="451.57114"
         id="text1"><tspan
           id="tspan1"
           style="font-style:normal;font-variant:normal;font-weight:normal;font-stretch:normal;font-size:39.8311px;line-height:754.387px;font-family:'Bitstream Vera Sans';-inkscape-font-specification:'Bitstream Vera Sans';stroke-width:0.199155"
           x="196.98004"
           y="451.57114">10× </tspan></text></g></g></svg>
